<?xml version="1.0" encoding="utf-8"?>
<!-- Generator: Adobe Illustrator 16.0.3, SVG Export Plug-In . SVG Version: 6.00 Build 0)  -->
<!DOCTYPE svg PUBLIC "-//W3C//DTD SVG 1.1//EN" "http://www.w3.org/Graphics/SVG/1.1/DTD/svg11.dtd">
<svg version="1.1" id="Ebene_1" xmlns="http://www.w3.org/2000/svg" xmlns:xlink="http://www.w3.org/1999/xlink" x="0px" y="0px" width="2800px" height="1300px" viewBox="0 0 2800 1300" enable-background="new 0 0 2800 1300" xml:space="preserve"><g><g><path d="M344.575,794.101c3.371,2.772,7.769,4.398,13.188,4.878c3.371,0.361,5.059,1.626,5.059,3.794v0.542 c-0.361,2.529-1.626,3.794-3.794,3.794h-48.237c-1.084,0-5.18-4.697-12.285-14.092c-7.108-9.395-15.356-20.596-24.751-33.604 s-19.032-26.315-28.906-39.927c-9.877-13.609-18.128-24.57-24.751-32.881h-28.906v94.126c0,7.831,3.009,12.799,9.033,14.904 c6.021,2.109,9.033,4.67,9.033,7.679c0,2.529-1.206,3.794-3.613,3.794h-61.245c-2.529,0-3.794-1.265-3.794-3.794 c0-3.009,3.009-5.569,9.033-7.679c6.021-2.105,9.033-7.073,9.033-14.904V580.014c0-7.707-3.012-12.646-9.033-14.814 c-6.024-2.168-9.033-4.816-9.033-7.949c0-2.529,1.265-3.794,3.794-3.794h106.592c12.404,0,25.352,2.199,38.843,6.594 c13.488,4.398,23.907,12.917,31.255,25.564c5.781,10.239,8.672,22.524,8.672,36.855c-0.243,13.612-4.155,25.835-11.743,36.675 c-6.024,8.553-14.394,15.086-25.112,19.602c-10.721,4.518-20.898,7.078-30.532,7.679L344.575,794.101z M191.191,568.451v105.508 h41.914c8.311,0,16.74-1.203,25.293-3.613c8.55-2.408,15.898-6.685,22.041-12.827c9.634-9.273,14.453-21.558,14.453-36.855 c0-14.693-5-26.978-14.995-36.855c-10.721-10.236-25.112-15.356-43.179-15.356H191.191z"/><path d="M450.22,700.878V579.833c0-7.707-3.012-12.615-9.033-14.724c-6.024-2.106-9.033-4.726-9.033-7.859 c0-2.529,1.265-3.794,3.794-3.794h61.245c2.408,0,3.613,1.265,3.613,3.794c0,3.133-2.953,5.691-8.853,7.678 c-5.903,1.987-8.853,6.837-8.853,14.543v97.378c0,18.428,0.601,34.75,1.807,48.96c1.203,14.214,4.336,26.196,9.395,35.952 c4.937,9.756,12.525,17.163,22.764,22.222c10.236,5.059,24.39,7.588,42.456,7.588c31.797,0,53.355-12.525,64.678-37.578 c8.068-17.583,12.104-43.298,12.104-77.144v-96.836c0-7.707-3.012-12.646-9.033-14.814c-6.024-2.168-9.033-4.816-9.033-7.949 c0-2.529,1.265-3.794,3.794-3.794h46.069c2.408,0,3.613,1.265,3.613,3.794c0,3.133-2.981,5.781-8.943,7.949 s-8.943,7.108-8.943,14.814v120.864c-0.122,17.948-1.778,34.357-4.968,49.23c-3.193,14.877-9.064,27.371-17.615,37.488 c-15.297,17.705-39.204,26.558-71.724,26.558c-20.596,0-38.12-1.928-52.573-5.781s-26.016-10.84-34.688-20.957 C457.565,770.434,450.22,741.59,450.22,700.878z"/><path d="M980.426,770.434v-190.42c0-7.707-2.981-12.646-8.943-14.814s-8.943-4.816-8.943-7.949c0-2.529,1.203-3.794,3.613-3.794 h46.069c2.529,0,3.794,1.265,3.794,3.794c0,3.133-3.012,5.781-9.033,7.949c-6.024,2.168-9.033,7.108-9.033,14.814l-0.181,234.863 l-31.978-7.769l-173.076-214.81v188.433c0,7.831,3.009,12.799,9.033,14.904c6.021,2.109,9.033,4.67,9.033,7.679 c0,2.529-1.265,3.794-3.794,3.794H761.1c-2.529,0-3.794-1.265-3.794-3.794c0-3.009,3.009-5.569,9.033-7.679 c6.021-2.105,9.033-7.073,9.033-14.904V580.014c0-7.707-3.012-12.646-9.033-14.814c-6.024-2.168-9.033-4.816-9.033-7.949 c0-2.529,1.265-3.794,3.794-3.794h46.431L980.426,770.434z"/><path d="M1153.278,790.126h77.144c11.201,0,20.687-4.305,28.454-12.918c7.77-8.609,13.641-15.325,17.615-20.144 c2.168-2.647,3.854-3.975,5.059-3.975c2.529,0,3.794,1.265,3.794,3.794c0,1.566-0.121,2.831-0.361,3.794l-13.188,46.431h-166.03 c-2.168,0-3.252-1.265-3.252-3.794c0-3.009,3.009-5.569,9.033-7.679c6.021-2.105,9.033-7.073,9.033-14.904V580.014 c0-7.828-3.012-12.796-9.033-14.905c-6.024-2.106-9.033-4.726-9.033-7.859c0-2.529,1.265-3.794,3.794-3.794h167.656v46.431 c0,2.529-1.265,3.794-3.794,3.794c-1.205,0-3.433-2.408-6.685-7.227c-6.024-8.311-11.232-14.752-15.627-19.331 c-4.398-4.576-10.208-6.865-17.435-6.865h-77.144v98.101h41.372c7.706,0,12.765-3.1,15.176-9.304 c2.408-6.202,5.177-9.305,8.311-9.305c2.408,0,3.613,1.265,3.613,3.794v45.889c0,2.529-1.205,3.794-3.613,3.794 c-3.134,0-6.083-3.071-8.853-9.214c-2.772-6.143-8.012-9.214-15.718-9.214h-40.288V790.126z"/><path d="M1423.688,790.126h77.144c11.201,0,20.687-4.305,28.454-12.918c7.77-8.609,13.641-15.325,17.615-20.144 c2.168-2.647,3.854-3.975,5.059-3.975c2.529,0,3.794,1.265,3.794,3.794c0,1.566-0.121,2.831-0.361,3.794l-13.188,46.431h-165.488 c-2.529,0-3.794-1.265-3.794-3.794c0-3.009,3.009-5.569,9.033-7.679c6.021-2.105,9.033-7.073,9.033-14.904V580.014 c0-7.707-3.012-12.646-9.033-14.814c-6.024-2.168-9.033-4.816-9.033-7.949c0-2.529,1.265-3.794,3.794-3.794h61.245 c2.408,0,3.613,1.265,3.613,3.794c0,3.133-3.012,5.781-9.033,7.949c-6.024,2.168-9.033,7.108-9.033,14.814L1423.688,790.126z"/><path d="M1898.568,813.793c-36.977,0-69.736-11.803-98.281-35.41c-28.545-23.604-42.817-56.246-42.817-97.92 c0-40.587,13.88-73.138,41.644-97.649c27.76-24.508,60.911-36.765,99.455-36.765c13.849,0,28.573,1.536,44.172,4.607 c15.597,3.071,30.442,9.124,44.534,18.157l-4.336,37.939c-0.482,2.168-1.688,3.252-3.613,3.252h-0.542 c-1.445-0.119-3.012-1.807-4.697-5.059c-7.831-16.74-17.556-27.881-29.178-33.423c-11.624-5.539-27.071-8.311-46.34-8.311 c-26.859,0-50.767,9.335-71.724,28.003c-20.957,18.67-31.436,48.418-31.436,89.248c0,26.258,9.784,51.611,29.358,76.06 c19.57,24.452,44.172,37.397,73.801,38.843c2.891,0.121,5.66,0.181,8.311,0.181c13.73,0,25.293-1.807,34.688-5.42 c11.201-4.336,20.596-13.126,28.184-26.377v-33.965c-0.243-3.731-2.168-6.622-5.781-8.672c-3.252-1.685-8.012-3.822-14.272-6.413 c-6.264-2.589-9.395-5.149-9.395-7.679s1.265-3.794,3.794-3.794h72.446c2.529,0,3.794,1.265,3.794,3.794 c0,3.134-3.012,5.781-9.033,7.949c-6.024,2.168-9.033,7.108-9.033,14.814v70.278c-18.549,0.844-36.435,3.433-53.657,7.769 c-8.672,2.286-17.226,3.854-25.654,4.697C1914.526,813.369,1906.396,813.793,1898.568,813.793z"/><path d="M2150.731,580.014v84.551h152.661v-84.551c0-7.707-3.012-12.646-9.033-14.814c-6.024-2.168-9.033-4.816-9.033-7.949 c0-2.529,1.265-3.794,3.794-3.794h61.245c2.529,0,3.794,1.265,3.794,3.794c0,3.133-3.043,5.781-9.124,7.949 c-6.083,2.168-9.123,7.108-9.123,14.814v200.718c0,7.831,3.04,12.799,9.123,14.904c6.081,2.109,9.124,4.67,9.124,7.679 c0,2.529-1.265,3.794-3.794,3.794h-61.245c-2.529,0-3.794-1.265-3.794-3.794c0-3.009,3.009-5.569,9.033-7.679 c6.021-2.105,9.033-7.073,9.033-14.904v-99.546h-152.661v99.546c0,7.831,3.009,12.799,9.033,14.904 c6.021,2.109,9.033,4.67,9.033,7.679c0,2.529-1.205,3.794-3.613,3.794h-61.245c-2.529,0-3.794-1.265-3.794-3.794 c0-3.009,3.009-5.569,9.033-7.679c6.021-2.105,9.033-7.073,9.033-14.904V580.014c0-7.707-3.012-12.646-9.033-14.814 c-6.024-2.168-9.033-4.816-9.033-7.949c0-2.529,1.265-3.794,3.794-3.794h61.245c2.408,0,3.613,1.265,3.613,3.794 c0,3.133-3.012,5.781-9.033,7.949C2153.74,567.367,2150.731,572.307,2150.731,580.014z"/><path d="M2631.978,599.887c0,2.529-1.265,3.794-3.794,3.794c-1.084,0-3.373-2.408-6.865-7.227 c-6.143-8.311-11.413-14.752-15.809-19.331c-4.397-4.576-10.207-6.865-17.434-6.865h-45.347v210.474 c0,7.831,3.009,12.827,9.033,14.995c6.021,2.168,9.033,4.76,9.033,7.769c0,2.411-1.205,3.613-3.613,3.613h-61.245 c-2.529,0-3.794-1.202-3.794-3.613c0-3.009,3.009-5.601,9.033-7.769c6.021-2.168,9.033-7.164,9.033-14.995V570.258h-46.069 c-7.227,0-13.098,2.29-17.615,6.865c-4.516,4.579-9.786,11.021-15.808,19.331c-3.373,4.819-5.601,7.227-6.685,7.227 c-2.529,0-3.794-1.265-3.794-3.794v-33.423c0-6.504,1.112-10.447,3.343-11.833c2.227-1.383,7.977-2.078,17.253-2.078h170.547 c9.996,0,15.927,0.604,17.796,1.807c1.865,1.206,2.8,5.239,2.8,12.104V599.887z"/></g><g><path d="M271.795,968.205v29.669h45.536v9.933h-45.536v30.96h52.631v9.804h-62.951v-90.299h61.274v9.934H271.795z"/><path d="M425.431,1048.57l-54.179-72.497v72.497h-10.32v-90.299h10.707l54.179,72.626v-72.626h10.191v90.299H425.431z"/><path d="M506.443,968.205v80.365h-10.32v-80.365h-29.412v-9.934h69.272v9.934H506.443z"/><path d="M576.749,968.205v29.669h45.536v9.933h-45.536v30.96h52.631v9.804h-62.951v-90.299h61.274v9.934H576.749z"/><path d="M706.262,1019.804c-1.935,0.129-3.999,0.258-6.063,0.258h-23.994v28.509h-10.32v-90.299h34.313 c22.575,0,35.604,11.094,35.604,30.314c0,14.964-7.224,25.026-20.253,29.283l21.156,30.701h-11.739L706.262,1019.804z M700.199,1010.129c16.383,0,25.67-7.224,25.67-21.284c0-13.674-9.288-20.64-25.67-20.64h-23.994v41.924H700.199z"/><path d="M802.108,968.205v80.365h-10.32v-80.365h-29.412v-9.934h69.272v9.934H802.108z"/><path d="M861.579,1025.737l-10.062,22.833h-10.965l40.505-90.299h10.707l40.376,90.299h-11.223l-10.062-22.833H861.579z M886.089,970.011l-20.124,45.794h40.505L886.089,970.011z"/><path d="M961.811,1048.57v-90.299h10.32v90.299H961.811z"/><path d="M1079.457,1048.57l-54.179-72.497v72.497h-10.32v-90.299h10.707l54.179,72.626v-72.626h10.191v90.299H1079.457z"/><path d="M1214.776,1048.57l-0.129-74.432l-32.894,64.886h-6.192l-32.766-64.886v74.432h-9.804v-90.299h12.771l33.023,65.016 l32.895-65.016h12.642v90.299H1214.776z"/><path d="M1277.6,968.205v29.669h45.537v9.933H1277.6v30.96h52.632v9.804h-62.951v-90.299h61.273v9.934H1277.6z"/><path d="M1431.236,1048.57l-54.18-72.497v72.497h-10.319v-90.299h10.707l54.179,72.626v-72.626h10.191v90.299H1431.236z"/><path d="M1512.249,968.205v80.365h-10.32v-80.365h-29.411v-9.934h69.271v9.934H1512.249z"/></g><path fill-rule="evenodd" clip-rule="evenodd" fill="#1D1D1B" d="M1659.429,139c-10.184,219.757-18.014,334.429-48.748,414.067 c27.201,166.905,58.797,281.005,15.168,370.868c24.529,96.498,39.924,155.6,49.834,237.064 c7.637-163.766,11.336-210.822,15.164-249.707c-2.982-60.975,1.93-137.471,10.834-186.486 C1673.097,557.593,1656.181,385.975,1659.429,139z"/></g></svg>
