<?xml version="1.0" encoding="utf-8"?>
<!-- Generator: Adobe Illustrator 16.0.3, SVG Export Plug-In . SVG Version: 6.00 Build 0)  -->
<!DOCTYPE svg PUBLIC "-//W3C//DTD SVG 1.1//EN" "http://www.w3.org/Graphics/SVG/1.1/DTD/svg11.dtd">
<svg version="1.1" id="Ebene_1" xmlns="http://www.w3.org/2000/svg" xmlns:xlink="http://www.w3.org/1999/xlink" x="0px" y="0px"
	 width="388px" height="388px" viewBox="0 0 388 388" enable-background="new 0 0 388 388" xml:space="preserve">
<defs>
	<filter id="Adobe_OpacityMaskFilter" filterUnits="userSpaceOnUse" x="0" y="0" width="388" height="388">
		<feColorMatrix  type="matrix" values="1 0 0 0 0  0 1 0 0 0  0 0 1 0 0  0 0 0 1 0"/>
	</filter>
</defs>
<mask maskUnits="userSpaceOnUse" x="0" y="0" width="388" height="388" id="SVGID_1_">
	<g filter="url(#Adobe_OpacityMaskFilter)">
		<path fill="#FFFFFF" d="M225.1,359.1l-7.799-7.799c61.34-9,111.279-53.021,128.879-111.121L300,194l46.18-46.18
			C328.58,89.72,278.641,45.7,217.301,36.7l7.799-7.8C285.24,40.2,334.18,83.66,353.32,140.68l4.74-4.739
			C338.1,79.46,289.779,36.38,230.221,23.78c-2.361-0.5-4.74-0.96-7.141-1.34l-5.24,5.239l-8.1,8.101l-1.82,1.819L194,51.52
			L180.08,37.6l-1.82-1.819L164.9,22.42c-2.4,0.4-4.761,0.86-7.12,1.36C98.74,36.28,50.76,78.72,30.46,134.46l4.74,4.74
			C54.64,82.9,103.26,40.1,162.88,28.88l7.82,7.82C109.9,45.62,60.28,88.94,42.28,146.28L90,194l-47.72,47.721
			c18,57.34,67.62,100.66,128.42,109.58l-7.82,7.818C103.26,347.9,54.64,305.1,35.2,248.801l-4.74,4.738
			c20.3,55.74,68.28,98.182,127.32,110.682c2.359,0.5,4.72,0.959,7.12,1.359l29.1-29.1l29.08,29.08c2.4-0.381,4.779-0.84,7.141-1.34
			c59.559-12.602,107.879-55.682,127.84-112.16l-4.74-4.74C334.18,304.34,285.24,347.801,225.1,359.1z M194,328l-21.56,21.561
			c-26.141-3.58-50.78-13.641-72.2-29.621C74.22,300.539,54.48,273,44.56,242.279l46.86-46.859l1.4-1.42l-1.4-1.42l-46.86-46.86
			C54.48,115,74.22,87.46,100.24,68.06c21.42-15.979,46.06-26.04,72.2-29.619L194,60l21.539-21.54
			c26.4,3.58,51.24,13.8,72.842,30.06c26.158,19.7,45.84,47.641,55.539,78.74l-45.34,45.32l-1.4,1.42l1.4,1.42l45.34,45.32
			c-9.699,31.1-29.381,59.039-55.539,78.74c-21.602,16.26-46.441,26.48-72.842,30.059L194,328z"/>
	</g>
</mask>
<linearGradient id="SVGID_2_" gradientUnits="userSpaceOnUse" x1="193.9995" y1="0" x2="193.9995" y2="388.0005">
	<stop  offset="0" style="stop-color:#6D5024"/>
	<stop  offset="1" style="stop-color:#524018"/>
</linearGradient>
<rect mask="url(#SVGID_1_)" fill="url(#SVGID_2_)" width="388" height="388"/>
<defs>
	<filter id="Adobe_OpacityMaskFilter_1_" filterUnits="userSpaceOnUse" x="0" y="0" width="388" height="388">
		<feColorMatrix  type="matrix" values="1 0 0 0 0  0 1 0 0 0  0 0 1 0 0  0 0 0 1 0"/>
	</filter>
</defs>
<mask maskUnits="userSpaceOnUse" x="0" y="0" width="388" height="388" id="SVGID_3_">
	<g filter="url(#Adobe_OpacityMaskFilter_1_)">
		
			<rect x="182.686" y="8.686" transform="matrix(0.7071 0.7071 -0.7071 0.7071 70.9634 -131.3208)" fill="#FFFFFF" width="22.627" height="22.627"/>
	</g>
</mask>
<linearGradient id="SVGID_4_" gradientUnits="userSpaceOnUse" x1="193.9995" y1="0" x2="193.9995" y2="388.0005">
	<stop  offset="0" style="stop-color:#6D5024"/>
	<stop  offset="1" style="stop-color:#524018"/>
</linearGradient>
<rect mask="url(#SVGID_3_)" fill="url(#SVGID_4_)" width="388" height="388"/>
<defs>
	<filter id="Adobe_OpacityMaskFilter_2_" filterUnits="userSpaceOnUse" x="0" y="0" width="388" height="388">
		<feColorMatrix  type="matrix" values="1 0 0 0 0  0 1 0 0 0  0 0 1 0 0  0 0 0 1 0"/>
	</filter>
</defs>
<mask maskUnits="userSpaceOnUse" x="0" y="0" width="388" height="388" id="SVGID_5_">
	<g filter="url(#Adobe_OpacityMaskFilter_2_)">
		
			<rect x="182.686" y="356.686" transform="matrix(0.7071 0.7071 -0.7071 0.7071 317.0366 -29.394)" fill="#FFFFFF" width="22.627" height="22.627"/>
	</g>
</mask>
<linearGradient id="SVGID_6_" gradientUnits="userSpaceOnUse" x1="193.9995" y1="0" x2="193.9995" y2="388.0005">
	<stop  offset="0" style="stop-color:#6D5024"/>
	<stop  offset="1" style="stop-color:#524018"/>
</linearGradient>
<rect mask="url(#SVGID_5_)" fill="url(#SVGID_6_)" width="388" height="388"/>
<g>
</g>
<g>
</g>
<g>
</g>
<g>
</g>
<g>
</g>
<g>
</g>
</svg>
