<?xml version="1.0" encoding="utf-8"?>
<!-- Generator: Adobe Illustrator 16.0.3, SVG Export Plug-In . SVG Version: 6.00 Build 0)  -->
<!DOCTYPE svg PUBLIC "-//W3C//DTD SVG 1.1//EN" "http://www.w3.org/Graphics/SVG/1.1/DTD/svg11.dtd">
<svg version="1.1" id="Ebene_1" xmlns="http://www.w3.org/2000/svg" xmlns:xlink="http://www.w3.org/1999/xlink" x="0px" y="0px"
	 width="1280px" height="1280px" viewBox="0 0 1280 1280" xml:space="preserve">
<g>
	<path d="M640,1244l-1.059-0.001l0.117-40L640,1204V1244z M645.454,1243.976l-0.352-39.998l0.94-0.01l0.469,39.998L645.454,1243.976
		z M631.708,1243.944l-1-0.015l0.586-39.996l1,0.015L631.708,1243.944z M653.679,1243.848l-0.82-39.992l0.937-0.021l0.941,39.988
		L653.679,1243.848z M623.476,1243.778l-1.116-0.032l1.288-39.979l0.883,0.024L623.476,1243.778z M661.984,1243.606l-1.449-39.974
		l0.938-0.034l1.528,39.971L661.984,1243.606z M615.189,1243.499l-0.999-0.041l1.639-39.967l1,0.041L615.189,1243.499z
		 M670.228,1243.257l-1.992-39.95l0.999-0.051l1.992,39.951L670.228,1243.257z M606.965,1243.111l-1.059-0.058l2.229-39.938
		l0.938,0.052L606.965,1243.111z M678.45,1242.795l-2.466-39.924l0.944-0.061l2.575,39.917L678.45,1242.795z M598.687,1242.608
		l-1.054-0.072l2.809-39.9l0.941,0.064L598.687,1242.608z M686.719,1242.219l-3.041-39.885l0.935-0.072l3.166,39.875
		L686.719,1242.219z M590.418,1241.993l-0.997-0.082l3.278-39.865l0.997,0.082L590.418,1241.993z M694.985,1241.529l-3.632-39.834
		l0.995-0.091l3.633,39.834L694.985,1241.529z M582.216,1241.271l-1.01-0.097l3.82-39.817l0.938,0.09L582.216,1241.271z
		 M703.179,1240.733l-4.096-39.789l0.93-0.099l4.225,39.776L703.179,1240.733z M573.965,1240.429l-1.058-0.116l4.462-39.75
		l0.929,0.103L573.965,1240.429z M711.433,1239.818l-4.701-39.723l0.941-0.112l4.803,39.711L711.433,1239.818z M565.727,1239.478
		l-1-0.124l4.933-39.695l0.985,0.122L565.727,1239.478z M719.593,1238.799l-5.148-39.668l0.926-0.122l5.279,39.65L719.593,1238.799z
		 M557.556,1238.418l-1.105-0.152l5.624-39.604l0.875,0.121L557.556,1238.418z M727.762,1237.667l-5.641-39.6l0.883-0.13
		l5.854,39.57L727.762,1237.667z M549.347,1237.239l-0.993-0.15l5.985-39.549l0.984,0.148L549.347,1237.239z M736.014,1236.407
		l-6.328-39.496l0.987-0.158l6.328,39.496L736.014,1236.407z M541.212,1235.958l-1.048-0.174l6.566-39.457l0.925,0.152
		L541.212,1235.958z M744.132,1235.054l-6.785-39.42l0.919-0.16l6.918,39.396L744.132,1235.054z M533.034,1234.554l-1.046-0.188
		l7.155-39.355l0.922,0.166L533.034,1234.554z M752.297,1233.576l-7.371-39.314l0.915-0.173l7.506,39.289L752.297,1233.576z
		 M524.876,1233.037l-0.981-0.19l7.619-39.268l0.981,0.19L524.876,1233.037z M760.44,1231.986l-7.957-39.201l0.968-0.196
		l7.98,39.195L760.44,1231.986z M516.802,1231.422l-1.041-0.218l8.205-39.149l0.917,0.191L516.802,1231.422z M768.518,1230.295
		l-8.453-39.096l0.92-0.201l8.565,39.072L768.518,1230.295z M508.682,1229.68l-1.031-0.229l8.789-39.023l0.919,0.206
		L508.682,1229.68z M776.603,1228.482l-9.012-38.973l0.961-0.223l9.037,38.966L776.603,1228.482z M500.649,1227.84l-1.028-0.243
		l9.26-38.914l0.917,0.218L500.649,1227.84z M784.618,1226.571l-9.48-38.859l0.901-0.223l9.619,38.826L784.618,1226.571z
		 M492.586,1225.878l-1.025-0.258l9.839-38.771l0.915,0.23L492.586,1225.878z M792.677,1224.532l-10.088-38.707l0.912-0.238
		l10.197,38.678L792.677,1224.532z M484.553,1223.803l-0.98-0.261l10.336-38.642l0.951,0.253L484.553,1223.803z M800.636,1222.399
		l-10.555-38.582l0.909-0.251l10.664,38.553L800.636,1222.399z M476.595,1221.631l-1.017-0.286l10.896-38.486l0.908,0.255
		L476.595,1221.631z M808.637,1220.139l-11.16-38.412l0.922-0.268l11.236,38.39L808.637,1220.139z M468.622,1219.336l-0.967-0.287
		l11.376-38.348l0.95,0.281L468.622,1219.336z M816.571,1217.777l-11.697-38.252l0.939-0.288l11.73,38.241L816.571,1217.777z
		 M460.699,1216.937l-0.967-0.302l11.911-38.186l0.951,0.296L460.699,1216.937z M824.452,1215.311l-12.191-38.098l0.899-0.288
		l12.297,38.063L824.452,1215.311z M452.806,1214.426l-1.069-0.35l12.597-37.965l0.84,0.275L452.806,1214.426z M832.353,1212.721
		l-12.789-37.9l0.947-0.319l12.789,37.9L832.353,1212.721z M444.897,1211.789l-0.959-0.328l12.964-37.842l0.941,0.322
		L444.897,1211.789z M840.165,1210.037l-13.281-37.73l0.908-0.32l13.35,37.707L840.165,1210.037z M437.08,1209.063l-1.006-0.36
		l13.538-37.639l0.884,0.315L437.08,1209.063z M847.901,1207.262l-13.697-37.582l0.867-0.318l13.84,37.529L847.901,1207.262z
		 M429.24,1206.204l-0.94-0.352l14.007-37.467l0.94,0.352L429.24,1206.204z M855.708,1204.337l-14.328-37.346l0.953-0.365
		l14.289,37.361L855.708,1204.337z M421.502,1203.262l-0.996-0.388l14.594-37.242l0.875,0.34L421.502,1203.262z M863.384,1201.342
		l-14.775-37.172l0.879-0.351l14.875,37.131L863.384,1201.342z M413.799,1200.21l-0.98-0.396l15.057-37.059l0.88,0.356
		L413.799,1200.21z M871.078,1198.216l-15.344-36.94l0.89-0.37l15.401,36.916L871.078,1198.216z M406.099,1197.036l-0.936-0.394
		l15.538-36.859l0.914,0.386L406.099,1197.036z M878.658,1195.012l-15.828-36.734l0.885-0.383l15.885,36.711L878.658,1195.012z
		 M398.483,1193.772l-0.979-0.429l16.115-36.609l0.859,0.376L398.483,1193.772z M886.223,1191.693l-16.365-36.498l0.908-0.407
		l16.365,36.498L886.223,1191.693z M390.915,1190.405l-0.973-0.442l16.592-36.396l0.854,0.388L390.915,1190.405z M893.715,1188.283
		l-16.844-36.281l0.902-0.418l16.844,36.279L893.715,1188.283z M383.347,1186.911l-0.918-0.433l17.065-36.178l0.896,0.423
		L383.347,1186.911z M901.137,1184.781l-17.275-36.078l0.827-0.397l17.416,36.01L901.137,1184.781z M375.865,1183.332l-0.948-0.464
		l17.631-35.904l0.854,0.417L375.865,1183.332z M908.535,1181.167l-17.748-35.848l0.821-0.409l17.889,35.777L908.535,1181.167z
		 M368.445,1179.655l-0.941-0.476l18.099-35.672l0.849,0.429L368.445,1179.655z M915.907,1177.438l-18.265-35.586l0.839-0.433
		l18.357,35.539L915.907,1177.438z M361.078,1175.876l-0.992-0.52l18.678-35.371l0.785,0.41L361.078,1175.876z M923.253,1173.597
		l-18.824-35.295l0.879-0.469l18.824,35.295L923.253,1173.597z M353.752,1171.991l-0.927-0.501l19.048-35.174l0.836,0.452
		L353.752,1171.991z M930.498,1169.677l-19.285-35.043l0.873-0.48l19.285,35.043L930.498,1169.677z M346.494,1168.013l-0.932-0.52
		l19.53-34.908l0.818,0.456L346.494,1168.013z M937.718,1165.645l-19.795-34.758l0.892-0.507l19.744,34.787L937.718,1165.645z
		 M339.234,1163.904l-0.881-0.509l20.009-34.635l0.856,0.493L339.234,1163.904z M944.83,1161.544l-20.199-34.525l0.834-0.489
		l20.25,34.496L944.83,1161.544z M332.078,1159.721l-0.874-0.52l20.485-34.356l0.848,0.505L332.078,1159.721z M951.938,1157.316
		l-20.701-34.227l0.81-0.49l20.787,34.175L951.938,1157.316z M324.979,1155.44l-0.854-0.524l20.932-34.086l0.854,0.524
		L324.979,1155.44z M958.989,1152.989l-21.199-33.92l0.83-0.519l21.231,33.9L958.989,1152.989z M317.942,1151.064l-0.859-0.545
		l21.426-33.777l0.833,0.527L317.942,1151.064z M965.901,1148.615l-21.535-33.707l0.786-0.505l21.643,33.639L965.901,1148.615z
		 M311.007,1146.618l-0.893-0.582l21.89-33.479l0.785,0.512L311.007,1146.618z M972.861,1144.079l-22.08-33.354l0.832-0.551
		l22.08,33.354L972.861,1144.079z M304.093,1142.052l-0.885-0.595l22.35-33.174l0.777,0.522L304.093,1142.052z M979.704,1139.485
		l-22.512-33.064l0.797-0.544l22.566,33.027L979.704,1139.485z M297.229,1137.383l-0.902-0.625l22.884-32.808l0.744,0.515
		L297.229,1137.383z M986.473,1134.804l-22.914-32.785l0.777-0.546l22.994,32.73L986.473,1134.804z M290.444,1132.629l-0.868-0.618
		l23.282-32.525l0.763,0.543L290.444,1132.629z M993.19,1130.025l-23.338-32.486l0.743-0.537l23.471,32.391L993.19,1130.025z
		 M283.713,1127.773l-0.807-0.592l23.652-32.258l0.808,0.592L283.713,1127.773z M999.871,1125.132l-23.813-32.141l0.735-0.547
		l23.943,32.043L999.871,1125.132z M277.1,1122.867l-0.851-0.642l24.122-31.908l0.748,0.563L277.1,1122.867z M1006.483,1120.147
		l-24.281-31.787l0.765-0.585l24.338,31.744L1006.483,1120.147z M270.505,1117.831l-0.841-0.652l24.586-31.553l0.74,0.574
		L270.505,1117.831z M1012.992,1115.102l-24.672-31.484l0.749-0.589l24.744,31.428L1012.992,1115.102z M263.979,1112.707
		l-0.782-0.624l24.945-31.27l0.782,0.624L263.979,1112.707z M1019.433,1109.969l-25.059-31.178l0.705-0.57l25.201,31.063
		L1019.433,1109.969z M257.56,1107.522l-0.809-0.664l25.399-30.9l0.739,0.605L257.56,1107.522z M1025.875,1104.687l-25.584-30.748
		l0.768-0.639l25.584,30.748L1025.875,1104.687z M251.178,1102.223l-0.798-0.674l25.848-30.527l0.73,0.617L251.178,1102.223z
		 M1032.176,1099.377l-25.963-30.428l0.725-0.621l26.031,30.371L1032.176,1099.377z M244.904,1096.866l-0.789-0.684l26.224-30.205
		l0.723,0.627L244.904,1096.866z M1038.437,1093.952l-26.406-30.045l0.75-0.659l26.406,30.045L1038.437,1093.952z M238.67,1091.396
		l-0.793-0.708l26.69-29.793l0.699,0.624L238.67,1091.396z M1044.592,1088.472l-26.777-29.715l0.709-0.641l26.842,29.656
		L1044.592,1088.472z M232.545,1085.872l-0.783-0.719l27.058-29.459l0.691,0.633L232.545,1085.872z M1050.705,1082.878
		l-27.209-29.32l0.732-0.68l27.209,29.32L1050.705,1082.878z M226.451,1080.222l-0.728-0.686l27.422-29.121l0.728,0.686
		L226.451,1080.222z M1056.679,1077.259l-27.51-29.039l0.632-0.603l27.691,28.865L1056.679,1077.259z M220.48,1074.532l-0.764-0.738
		l27.871-28.691l0.674,0.652L220.48,1074.532z M1062.608,1071.528l-27.871-28.691l0.625-0.612l28.049,28.518L1062.608,1071.528z
		 M214.572,1068.751l-0.738-0.734l28.226-28.343l0.68,0.676L214.572,1068.751z M1068.519,1065.661l-28.343-28.227l0.675-0.679
		l28.401,28.166L1068.519,1065.661z M208.729,1062.873l-0.713-0.729l28.604-27.96l0.685,0.699L208.729,1062.873z M1074.291,1059.771
		l-28.693-27.869l0.638-0.66l28.807,27.752L1074.291,1059.771z M202.982,1056.933l-0.704-0.738l28.979-27.572l0.675,0.709
		L202.982,1056.933z M1080.012,1053.773l-29.094-27.451l0.628-0.668l29.207,27.33L1080.012,1053.773z M197.317,1050.915
		l-0.707-0.763l29.374-27.15l0.653,0.704L197.317,1050.915z M1085.648,1047.697l-29.486-27.029l0.646-0.706l29.545,26.965
		L1085.648,1047.697z M191.735,1044.821l-0.695-0.771l29.737-26.752l0.644,0.713L191.735,1044.821z M1091.205,1041.543
		l-29.877-26.596l0.665-0.747l29.877,26.596L1091.205,1041.543z M186.237,1038.652l-0.685-0.78l30.096-26.348l0.634,0.722
		L186.237,1038.652z M1096.649,1035.347l-30.205-26.225l0.626-0.722l30.262,26.156L1096.649,1035.347z M180.823,1032.41
		l-0.673-0.789l30.448-25.939l0.625,0.73L180.823,1032.41z M1102.037,1029.041l-30.584-25.779l0.645-0.765l30.584,25.779
		L1102.037,1029.041z M175.496,1026.095l-0.677-0.814l30.825-25.492l0.6,0.723L175.496,1026.095z M1107.312,1022.696l-30.9-25.4
		l0.604-0.738l30.959,25.33L1107.312,1022.696z M170.255,1019.71l-0.651-0.806l31.138-25.109l0.605,0.749L170.255,1019.71z
		 M1112.528,1016.245l-31.27-24.945l0.595-0.746l31.326,24.873L1112.528,1016.245z M165.103,1013.254l-0.632-0.804l31.457-24.707
		l0.603,0.767L165.103,1013.254z M1117.656,1009.723l-31.631-24.484l0.612-0.791l31.631,24.484L1117.656,1009.723z
		 M160.026,1006.711l-0.621-0.813l31.816-24.244l0.592,0.775L160.026,1006.711z M1122.666,1003.166l-31.93-24.094l0.573-0.763
		l31.986,24.02L1122.666,1003.166z M155.073,1000.147l-0.63-0.849l32.14-23.813l0.561,0.755L155.073,1000.147z M1127.594,996.532
		l-32.238-23.68l0.543-0.741l32.334,23.547L1127.594,996.532z M150.177,993.47l-0.618-0.856l32.485-23.338l0.55,0.763
		L150.177,993.47z M1132.433,989.83l-32.541-23.26l0.54-0.761l32.62,23.15L1132.433,989.83z M145.387,986.747l-0.587-0.837
		l32.758-22.955l0.56,0.798L145.387,986.747z M1137.22,983.007l-32.918-22.727l0.568-0.823l32.918,22.727L1137.22,983.007z
		 M140.695,979.969l-0.594-0.873l33.091-22.471l0.53,0.777L140.695,979.969z M1141.847,976.213l-33.156-22.377l0.513-0.764
		l33.246,22.242L1141.847,976.213z M136.078,973.1l-0.582-0.881l33.417-21.984l0.519,0.785L136.078,973.1z M1146.408,969.315
		l-33.443-21.943l0.484-0.744l33.566,21.754L1146.408,969.315z M131.572,966.195l-0.556-0.867l33.674-21.588l0.522,0.813
		L131.572,966.195z M1150.883,962.342l-33.742-21.482l0.482-0.764l33.848,21.316L1150.883,962.342z M127.146,959.205l-0.511-0.819
		l33.92-21.199l0.544,0.872L127.146,959.205z M1155.255,955.321l-34.018-21.043l0.455-0.743l34.154,20.82L1155.255,955.321z
		 M122.833,952.183l-0.531-0.88l34.258-20.648l0.5,0.827L122.833,952.183z M1159.563,948.188l-34.352-20.494l0.476-0.802
		l34.424,20.373L1159.563,948.188z M118.6,945.076l-0.489-0.835l34.496-20.25l0.519,0.886L118.6,945.076z M1163.727,941.072
		l-34.585-20.096l0.436-0.757l34.715,19.871L1163.727,941.072z M114.481,937.939l-0.49-0.863l34.784-19.75l0.493,0.869
		L114.481,937.939z M1167.848,933.804l-34.922-19.505l0.462-0.832l34.972,19.416L1167.848,933.804z M110.46,930.749l-0.48-0.873
		l35.044-19.285l0.48,0.873L110.46,930.749z M1171.843,926.523l-35.2-18.998l0.465-0.862l35.223,18.957L1171.843,926.523z
		 M106.539,923.505l-0.493-0.928l35.345-18.729l0.442,0.832L106.539,923.505z M1175.726,919.213l-35.445-18.539l0.44-0.844
		l35.492,18.447L1175.726,919.213z M102.705,916.185l-0.479-0.933l35.611-18.217l0.431,0.839L102.705,916.185z M1179.52,911.823
		l-35.707-18.029l0.439-0.872l35.73,17.982L1179.52,911.823z M98.984,908.837l-0.466-0.938l35.848-17.747l0.419,0.844
		L98.984,908.837z M1183.21,904.383l-35.962-17.514l0.416-0.855l36.008,17.42L1183.21,904.383z M95.365,901.441l-0.464-0.969
		l36.1-17.227l0.396,0.826L95.365,901.441z M1186.789,896.914l-36.188-17.043l0.404-0.86l36.232,16.947L1186.789,896.914z
		 M91.836,893.973l-0.451-0.974l36.346-16.703l0.385,0.833L91.836,893.973z M1190.265,889.396l-36.406-16.57l0.392-0.865
		l36.451,16.473L1190.265,889.396z M88.423,886.482l-0.428-0.957l36.543-16.268l0.384,0.859L88.423,886.482z M1193.657,881.781
		l-36.662-15.996l0.401-0.92l36.662,15.996L1193.657,881.781z M85.102,878.924l-0.404-0.939l36.754-15.785l0.382,0.889
		L85.102,878.924z M1196.924,874.168l-36.867-15.518l0.367-0.876l36.909,15.418L1196.924,874.168z M81.886,871.32l-0.382-0.923
		l36.961-15.293l0.378,0.915L81.886,871.32z M1200.079,866.529l-37.05-15.076l0.347-0.86l37.107,14.936L1200.079,866.529z
		 M78.776,863.679l-0.379-0.954l37.171-14.775l0.36,0.903L78.776,863.679z M1203.161,858.757l-37.297-14.453l0.363-0.937
		l37.297,14.453L1203.161,858.757z M75.759,855.959L75.4,855.02l37.365-14.277l0.354,0.928L75.759,855.959z M1206.091,851.063
		l-37.443-14.07l0.319-0.858l37.506,13.904L1206.091,851.063z M72.855,848.219l-0.353-0.964l37.567-13.736l0.334,0.913
		L72.855,848.219z M1208.966,843.193l-37.684-13.416l0.337-0.946l37.684,13.416L1208.966,843.193z M70.053,840.421l-0.34-0.97
		l37.762-13.193l0.321,0.917L70.053,840.421z M1211.692,835.386l-37.841-12.965l0.301-0.881l37.889,12.824L1211.692,835.386z
		 M67.367,832.61l-0.33-0.983l37.936-12.684l0.306,0.913L67.367,832.61z M1214.342,827.452l-38.051-12.334l0.316-0.974
		l38.039,12.369L1214.342,827.452z M64.786,824.756l-0.322-1.005l38.114-12.139l0.288,0.899L64.786,824.756z M1216.848,819.585
		l-38.186-11.91l0.276-0.891l38.229,11.771L1216.848,819.585z M62.313,816.866L62,815.84l38.284-11.59l0.27,0.886L62.313,816.866z
		 M1219.258,811.643l-38.357-11.344l0.271-0.921l38.381,11.268L1219.258,811.643z M59.945,808.927l-0.29-0.998l38.428-11.105
		l0.267,0.922L59.945,808.927z M1221.552,803.687l-38.514-10.803l0.266-0.947l38.521,10.771L1221.552,803.687z M57.684,800.943
		l-0.272-0.991l38.583-10.555l0.257,0.937L57.684,800.943z M1223.715,795.776l-38.619-10.416l0.228-0.857l38.678,10.197
		L1223.715,795.776z M55.542,792.957l-0.262-1.01l38.729-10.004l0.241,0.926L55.542,792.957z M1225.809,787.689l-38.799-9.729
		l0.243-0.97l38.799,9.729L1225.809,787.689z M53.508,784.941l-0.245-0.998l38.854-9.508l0.231,0.943L53.508,784.941z
		 M1227.766,779.67l-38.92-9.232l0.22-0.932l38.939,9.148L1227.766,779.67z M51.585,776.898l-0.237-1.029l38.991-8.926l0.212,0.918
		L51.585,776.898z M1229.622,771.584l-39.053-8.652l0.206-0.933l39.072,8.564L1229.622,771.584z M49.771,768.817l-0.215-0.993
		l39.097-8.453l0.208,0.962L49.771,768.817z M1231.354,763.527l-39.154-8.182l0.193-0.935l39.173,8.092L1231.354,763.527z
		 M48.073,760.737l-0.209-1.036l39.219-7.867l0.187,0.923L48.073,760.737z M1232.985,755.394l-39.271-7.598l0.181-0.937
		l39.289,7.506L1232.985,755.394z M46.485,752.621l-0.195-1.039l39.321-7.336l0.174,0.926L46.485,752.621z M1234.503,747.247
		l-39.377-7.031l0.176-0.984l39.377,7.031L1234.503,747.247z M45.003,744.457l-0.177-1.023l39.42-6.785l0.165,0.947L45.003,744.457z
		 M1235.902,739.127l-39.459-6.557l0.152-0.931l39.479,6.443L1235.902,739.127z M43.639,736.301l-0.162-1.016l39.505-6.271
		l0.153,0.959L43.639,736.301z M1237.196,730.938l-39.549-5.984l0.138-0.924l39.57,5.854L1237.196,730.938z M42.386,728.129
		l-0.15-1.039l39.592-5.697l0.137,0.939L42.386,728.129z M1238.381,722.719l-39.637-5.379l0.136-0.999l39.635,5.395
		L1238.381,722.719z M41.243,719.918l-0.134-1.027l39.667-5.148l0.125,0.955L41.243,719.918z M1239.442,714.557l-39.697-4.918
		l0.114-0.936l39.711,4.803L1239.442,714.557z M40.215,711.715l-0.12-1.022l39.731-4.629l0.113,0.964L40.215,711.715z
		 M1240.398,706.315l-39.766-4.328l0.109-1l39.764,4.34L1240.398,706.315z M39.3,703.504l-0.107-1.029l39.79-4.096l0.099,0.959
		L39.3,703.504z M1241.236,698.126l-39.813-3.864l0.089-0.938l39.824,3.748L1241.236,698.126z M38.497,695.276l-0.095-1.055
		l39.845-3.516l0.084,0.938L38.497,695.276z M1241.977,689.787l-39.872-3.198l0.076-0.943l39.875,3.166L1241.977,689.787z
		 M37.803,687.013l-0.078-1.03L77.614,683l0.073,0.963L37.803,687.013z M1242.589,681.599l-39.908-2.699l0.066-0.994l39.91,2.691
		L1242.589,681.599z M37.225,678.769l-0.064-1.023l39.924-2.467l0.061,0.973L37.225,678.769z M1243.093,673.378l-39.938-2.225
		l0.05-0.941l39.944,2.108L1243.093,673.378z M36.758,670.519l-0.05-1.028l39.953-1.934l0.047,0.97L36.758,670.519z
		 M1243.488,665.095l-39.967-1.641l0.038-0.94l39.971,1.523L1243.488,665.095z M36.403,662.266l-0.037-1.052l39.977-1.355
		l0.033,0.938L36.403,662.266z M1243.771,656.808l-39.986-1.053l0.026-1.001l39.986,1.055L1243.771,656.808z M36.16,654.027
		l-0.023-1.058l39.991-0.82l0.021,0.937L36.16,654.027z M1243.938,648.634l-39.994-0.701l0.012-0.884l39.998,0.469L1243.938,648.634
		z M36.027,645.743l-0.008-1.028l39.999-0.293l0.008,0.97L36.027,645.743z M1244,640.285h-40v-1h40V640.285z M76.005,637.656
		l-40-0.176l0.005-1.03l39.999,0.234L76.005,637.656z M1203.951,632.521l-0.013-0.939l39.996-0.587l0.015,1.057L1203.951,632.521z
		 M76.087,629.921l-39.994-0.703l0.02-1.03l39.993,0.763L76.087,629.921z M1203.8,624.829l-0.025-0.937l39.982-1.176l0.029,1.056
		L1203.8,624.829z M76.276,622.188l-39.981-1.229l0.032-0.999l39.98,1.258L76.276,622.188z M1203.543,617.096l-0.038-0.936
		l39.967-1.648l0.042,1.054L1203.543,617.096z M76.568,614.458l-39.961-1.758l0.048-1.058l39.956,1.875L76.568,614.458z
		 M1203.184,609.4l-0.05-0.939l39.938-2.229l0.056,1.031L1203.184,609.4z M76.962,606.762l-39.932-2.342l0.061-1.028l39.928,2.4
		L76.962,606.762z M1202.721,601.708l-0.067-0.998l39.909-2.696l0.066,0.998L1202.721,601.708z M77.464,599.044l-39.897-2.871
		l0.077-1.056l39.889,2.987L77.464,599.044z M1202.149,593.963l-0.076-0.936l39.865-3.283l0.086,1.057L1202.149,593.963z
		 M78.069,591.334l-39.855-3.399l0.082-0.944l39.857,3.374L78.069,591.334z M1201.477,586.29l-0.089-0.937l39.813-3.87l0.097,1.011
		L1201.477,586.29z M78.78,583.633l-39.807-3.928l0.105-1.053l39.795,4.044L78.78,583.633z M1200.7,578.622l-0.107-0.991
		l39.764-4.34l0.108,0.997L1200.7,578.622z M79.592,575.973l-39.744-4.514l0.117-1.022l39.738,4.572L79.592,575.973z
		 M1199.813,570.91l-0.114-0.932l39.695-4.925l0.13,1.054L1199.813,570.91z M80.514,568.293l-39.682-5.041l0.135-1.049l39.666,5.156
		L80.514,568.293z M1198.827,563.265l-0.127-0.926l39.619-5.509l0.145,1.057L1198.827,563.265z M81.539,560.627l-39.611-5.566
		l0.149-1.051l39.593,5.689L81.539,560.627z M1197.737,555.645l-0.149-0.989l39.551-5.977l0.149,0.989L1197.737,555.645z
		 M82.669,552.977l-39.533-6.091l0.164-1.054l39.513,6.224L82.669,552.977z M1196.521,547.915l-0.142-0.863l39.457-6.566l0.183,1.11
		L1196.521,547.915z M83.9,545.375l-39.438-6.681l0.172-1.014l39.429,6.737L83.9,545.375z M1195.233,540.386l-0.176-0.984
		l39.377-7.031l0.176,0.984L1195.233,540.386z M85.241,537.757l-39.347-7.202l0.188-1.017l39.334,7.269L85.241,537.757z
		 M1193.82,532.753l-0.178-0.92l39.268-7.619l0.201,1.044L1193.82,532.753z M86.685,530.165l-39.246-7.732l0.202-1.02l39.23,7.811
		L86.685,530.165z M1192.312,525.195l-0.188-0.912l39.149-8.205l0.217,1.047L1192.312,525.195z M88.233,522.593l-39.138-8.261
		l0.221-1.04l39.111,8.385L88.233,522.593z M1190.701,517.665l-0.214-0.964l39.047-8.677l0.22,0.989L1190.701,517.665z
		 M89.88,515.07l-39.01-8.845l0.231-1.015l38.991,8.926L89.88,515.07z M1188.974,510.108l-0.216-0.911l38.914-9.26l0.245,1.035
		L1188.974,510.108z M91.636,507.543l-38.887-9.37l0.245-1.013l38.867,9.453L91.636,507.543z M1187.155,502.625l-0.241-0.963
		l38.799-9.729l0.245,0.978L1187.155,502.625z M93.495,500.048l-38.753-9.908l0.263-1.023l38.725,10.019L93.495,500.048z
		 M1185.223,495.119l-0.241-0.904l38.646-10.321l0.273,1.028L1185.223,495.119z M95.458,492.572l-38.616-10.431l0.271-1l38.598,10.5
		L95.458,492.572z M1183.2,487.688l-0.253-0.901l38.486-10.896l0.288,1.025L1183.2,487.688z M97.525,485.125l-38.472-10.95
		l0.285-0.996l38.452,11.02L97.525,485.125z M1181.06,480.24l-0.265-0.897l38.348-11.375l0.302,1.021L1181.06,480.24z
		 M99.691,477.716l-38.314-11.488l0.297-0.989l38.299,11.542L99.691,477.716z M1178.833,472.876l-0.28-0.902l38.176-11.944
		l0.313,1.009L1178.833,472.876z M101.972,470.301l-38.152-12.018l0.312-0.984l38.135,12.07L101.972,470.301z M1176.488,465.49
		l-0.293-0.898l38.023-12.42l0.326,1.004L1176.488,465.49z M104.354,462.919l-37.982-12.544l0.325-0.98l37.965,12.597
		L104.354,462.919z M1174.057,458.181l-0.302-0.885l37.828-13l0.345,1.008L1174.057,458.181z M106.838,455.572l-37.805-13.068
		l0.341-0.984l37.781,13.139L106.838,455.572z M1171.514,450.872l-0.317-0.89l37.662-13.472l0.354,0.994L1171.514,450.872z
		 M109.423,448.262l-37.621-13.59l0.355-0.979l37.595,13.66L109.423,448.262z M1168.883,443.641l-0.345-0.928l37.484-13.961
		l0.353,0.947L1168.883,443.641z M112.105,440.999l-37.422-14.128l0.375-0.99l37.383,14.23L112.105,440.999z M1166.115,436.345
		l-0.318-0.821l37.268-14.532l0.404,1.044L1166.115,436.345z M114.891,433.765l-37.223-14.644l0.382-0.969l37.195,14.715
		L114.891,433.765z M1163.291,429.199l-0.354-0.876l37.082-14.997l0.395,0.978L1163.291,429.199z M117.782,426.558l-37.029-15.127
		l0.406-0.988l36.979,15.248L117.782,426.558z M1160.368,422.092l-0.36-0.857l36.857-15.543l0.411,0.978L1160.368,422.092z
		 M120.761,419.417l-36.808-15.658l0.404-0.947l36.787,15.707L120.761,419.417z M1157.363,415.058l-0.398-0.913l36.658-16.005
		l0.398,0.913L1157.363,415.058z M123.838,412.319l-36.579-16.186l0.417-0.941l36.557,16.234L123.838,412.319z M1154.233,408.005
		l-0.405-0.896l36.445-16.485l0.415,0.918L1154.233,408.005z M127.029,405.231L90.654,388.59l0.446-0.971l36.32,16.759
		L127.029,405.231z M1151.014,401.005l-0.396-0.842l36.18-17.061l0.45,0.961L1151.014,401.005z M130.295,398.234L94.174,381.05
		l0.455-0.953l36.075,17.279L130.295,398.234z M1147.694,394.048l-0.406-0.836l35.951-17.535l0.465,0.955L1147.694,394.048z
		 M133.674,391.249L97.78,373.595l0.467-0.946l35.847,17.748L133.674,391.249z M1144.281,387.137l-0.418-0.831l35.719-18.006
		l0.477,0.948L1144.281,387.137z M137.135,384.336L101.5,366.168l0.474-0.928l35.6,18.238L137.135,384.336z M1140.797,380.318
		l-0.454-0.872l35.479-18.475l0.466,0.896L1140.797,380.318z M140.698,377.461l-35.383-18.656l0.48-0.909l35.358,18.702
		L140.698,377.461z M1137.2,373.512l-0.472-0.877l35.232-18.939l0.472,0.877L1137.2,373.512z M144.361,370.625l-35.136-19.117
		l0.512-0.938l35.073,19.232L144.361,370.625z M1133.506,366.743l-0.452-0.813l34.916-19.516l0.517,0.929L1133.506,366.743z
		 M148.109,363.854l-34.869-19.6l0.504-0.895l34.844,19.644L148.109,363.854z M1129.715,360.024l-0.464-0.808l34.657-19.972
		l0.529,0.921L1129.715,360.024z M151.938,357.157l-34.57-20.122l0.504-0.866l34.57,20.122L151.938,357.157z M1125.842,353.368
		l-0.475-0.801l34.377-20.45l0.541,0.915L1125.842,353.368z M155.878,350.48l-34.305-20.571l0.523-0.872l34.289,20.598
		L155.878,350.48z M1121.877,346.766l-0.494-0.808l34.107-20.898l0.545,0.894L1121.877,346.766z M159.901,343.871l-34.018-21.042
		l0.535-0.865l34.002,21.068L159.901,343.871z M1117.821,340.217l-0.505-0.802l33.814-21.368l0.558,0.886L1117.821,340.217z
		 M164.027,337.298l-33.751-21.468l0.56-0.878l33.708,21.536L164.027,337.298z M1113.667,333.71l-0.508-0.782l33.516-21.835
		l0.578,0.892L1113.667,333.71z M168.22,330.817l-33.435-21.958l0.564-0.857l33.407,21.999L168.22,330.817z M1109.442,327.285
		l-0.527-0.789l33.209-22.296l0.582,0.87L1109.442,327.285z M172.509,324.383l-33.128-22.417l0.575-0.849l33.101,22.457
		L172.509,324.383z M1105.119,320.905l-0.565-0.822l32.953-22.674l0.565,0.822L1105.119,320.905z M176.885,318.007l-32.815-22.872
		l0.582-0.834l32.797,22.899L176.885,318.007z M1100.71,314.583l-0.567-0.8l32.617-23.155l0.587,0.828L1100.71,314.583z
		 M181.353,311.688l-32.506-23.311l0.598-0.832l32.478,23.349L181.353,311.688z M1096.187,308.282l-0.55-0.754l32.293-23.604
		l0.626,0.858L1096.187,308.282z M185.901,305.436L153.72,281.68l0.605-0.819l32.161,23.784L185.901,305.436z M1091.585,302.057
		l-0.542-0.723l31.965-24.047l0.655,0.874L1091.585,302.057z M190.538,299.242l-31.859-24.187l0.631-0.829l31.81,24.252
		L190.538,299.242z M1086.947,295.955l-0.571-0.739l31.609-24.513l0.649,0.841L1086.947,295.955z M195.244,293.132l-31.501-24.65
		l0.617-0.788l31.501,24.65L195.244,293.132z M1082.208,289.892l-0.609-0.768l31.303-24.901l0.633,0.796L1082.208,289.892z
		 M200.058,287.055l-31.189-25.045l0.639-0.794l31.166,25.073L200.058,287.055z M1077.356,283.858l-0.604-0.738l30.959-25.33
		l0.66,0.809L1077.356,283.858z M204.942,281.059l-30.849-25.463l0.664-0.803l30.796,25.526L204.942,281.059z M1072.45,277.926
		l-0.642-0.765l30.643-25.711l0.642,0.765L1072.45,277.926z M209.907,275.131l-30.502-25.877l0.675-0.794l30.448,25.94
		L209.907,275.131z M1067.425,272.011l-0.61-0.708l30.262-26.157l0.694,0.805L1067.425,272.011z M214.939,269.286l-30.125-26.315
		l0.673-0.77l30.096,26.349L214.939,269.286z M1062.371,266.227l-0.634-0.714l29.877-26.597l0.692,0.78L1062.371,266.227z
		 M220.063,263.497l-29.767-26.72l0.696-0.774l29.711,26.781L220.063,263.497z M1057.196,260.465l-0.644-0.706l29.545-26.965
		l0.702,0.77L1057.196,260.465z M225.264,257.779L195.86,230.66l0.678-0.735l29.403,27.119L225.264,257.779z M1051.974,254.804
		l-0.669-0.714l29.18-27.359l0.696,0.744L1051.974,254.804z M230.543,252.131l-29.037-27.512l0.703-0.74l29.007,27.542
		L230.543,252.131z M1046.614,249.152l-0.619-0.644l28.777-27.782l0.766,0.796L1046.614,249.152z M235.897,246.558l-28.663-27.9
		l0.695-0.713l28.651,27.913L235.897,246.558z M1041.281,243.679l-0.703-0.71l28.43-28.138l0.703,0.711L1041.281,243.679z
		 M241.311,241.073l-28.255-28.313l0.708-0.706l28.255,28.313L241.311,241.073z M1035.813,238.219l-0.712-0.701L1063.149,209
		l0.712,0.701L1035.813,238.219z M246.828,235.633l-27.9-28.663l0.732-0.71l27.871,28.692L246.828,235.633z M1030.227,232.79
		l-0.647-0.62l27.602-28.95l0.796,0.762L1030.227,232.79z M252.403,230.285l-27.512-29.037l0.756-0.715l27.451,29.094
		L252.403,230.285z M1024.642,227.507l-0.702-0.654l27.24-29.291l0.761,0.708L1024.642,227.507z M258.036,225.027l-27.087-29.433
		l0.751-0.691l27.056,29.462L258.036,225.027z M1018.937,222.26l-0.694-0.63l26.842-29.656l0.786,0.712L1018.937,222.26z
		 M263.752,219.834l-26.688-29.796l0.776-0.693l26.625,29.851L263.752,219.834z M1013.225,217.143l-0.75-0.661l26.439-30.016
		l0.75,0.661L1013.225,217.143z M269.539,214.719l-26.282-30.154l0.785-0.683l26.22,30.208L269.539,214.719z M1007.396,212.064
		l-0.759-0.651l26.031-30.37l0.759,0.651L1007.396,212.064z M275.393,209.686l-25.872-30.507l0.794-0.672l25.809,30.56
		L275.393,209.686z M1001.496,207.065l-0.768-0.641l25.619-30.719l0.768,0.641L1001.496,207.065z M281.314,204.731l-25.457-30.854
		l0.786-0.647l25.428,30.877L281.314,204.731z M995.512,202.132l-0.759-0.616l25.201-31.063l0.794,0.645L995.512,202.132z
		 M287.303,199.859l-25.038-31.194l0.797-0.639l25.002,31.224L287.303,199.859z M989.496,197.309l-0.785-0.62l24.779-31.399
		l0.785,0.62L989.496,197.309z M293.352,195.072l-24.606-31.536l0.802-0.625l24.578,31.559L293.352,195.072z M983.396,192.554
		l-0.776-0.595l24.318-31.76l0.812,0.624L983.396,192.554z M299.469,190.366l-24.178-31.865l0.81-0.614l24.149,31.887
		L299.469,190.366z M977.202,187.859l-0.755-0.563l23.887-32.084l0.849,0.633L977.202,187.859z M305.645,185.747l-23.736-32.196
		l0.818-0.602l23.708,32.217L305.645,185.747z M970.963,183.265l-0.754-0.547l23.453-32.402l0.866,0.628L970.963,183.265z
		 M311.886,181.21l-23.3-32.514l0.831-0.594l23.261,32.541L311.886,181.21z M964.698,178.782l-0.771-0.543l22.979-32.742
		l0.865,0.609L964.698,178.782z M318.183,176.764l-22.848-32.833l0.853-0.592l22.78,32.879L318.183,176.764z M958.363,174.378
		l-0.806-0.551l22.551-33.037l0.847,0.579L958.363,174.378z M324.538,172.404l-22.391-33.146l0.841-0.567l22.364,33.164
		L324.538,172.404z M951.941,170.042l-0.808-0.536l22.107-33.336l0.86,0.572L951.941,170.042z M330.972,168.119l-21.971-33.426
		l0.869-0.569l21.902,33.471L330.972,168.119z M945.464,165.798l-0.795-0.512l21.619-33.655l0.889,0.573L945.464,165.798z
		 M337.442,163.936l-21.506-33.728l0.876-0.557l21.437,33.771L337.442,163.936z M938.95,161.656l-0.829-0.518l21.18-33.933
		l0.87,0.543L938.95,161.656z M343.968,159.84l-21.036-34.021l0.862-0.532l21.01,34.038L343.968,159.84z M932.4,157.615
		l-0.857-0.519l20.684-34.238l0.857,0.519L932.4,157.615z M350.548,155.837l-20.563-34.31l0.869-0.52l20.537,34.325L350.548,155.837
		z M925.746,153.636l-0.864-0.507l20.234-34.504l0.864,0.507L925.746,153.636z M357.181,151.924l-20.085-34.592l0.885-0.513
		l20.041,34.617L357.181,151.924z M919.042,149.75l-0.874-0.497l19.783-34.766l0.867,0.494L919.042,149.75z M363.879,148.095
		l-19.63-34.852l0.904-0.508l19.561,34.892L363.879,148.095z M912.278,145.952l-0.854-0.47l19.277-35.049l0.902,0.497
		L912.278,145.952z M370.604,144.372l-19.125-35.132l0.888-0.483l19.101,35.145L370.604,144.372z M905.467,142.251l-0.862-0.46
		l18.818-35.297l0.907,0.484L905.467,142.251z M377.39,140.736l-18.637-35.393l0.882-0.464l18.637,35.393L377.39,140.736z
		 M898.625,138.655l-0.869-0.448l18.309-35.564l0.886,0.457L898.625,138.655z M384.234,137.188l-18.17-35.635l0.923-0.47
		l18.1,35.671L384.234,137.188z M891.709,135.14l-0.874-0.436l17.842-35.801l0.921,0.459L891.709,135.14z M391.103,133.745
		l-17.652-35.894l0.929-0.456l17.582,35.929L391.103,133.745z M884.768,131.731l-0.857-0.413l17.279-36.075l0.951,0.458
		L884.768,131.731z M398.041,130.387l-17.179-36.123l0.935-0.443l17.108,36.156L398.041,130.387z M877.755,128.408l-0.862-0.4
		l16.807-36.298l0.958,0.445L877.755,128.408z M405.022,127.124L388.32,90.778l0.954-0.437l16.605,36.391L405.022,127.124z
		 M870.721,125.192l-0.867-0.389l16.283-36.536l0.965,0.432L870.721,125.192z M412.034,123.964L395.837,87.39l0.946-0.417
		l16.125,36.605L412.034,123.964z M863.641,122.073l-0.897-0.387l15.807-36.745l0.946,0.408L863.641,122.073z M419.074,120.907
		L403.41,84.102l0.952-0.404l15.593,36.835L419.074,120.907z M856.518,119.051l-0.923-0.383l15.318-36.951l0.931,0.387
		L856.518,119.051z M426.185,117.935l-15.188-37.004l0.96-0.393l15.118,37.033L426.185,117.935z M849.328,116.117l-0.902-0.36
		l14.785-37.167l0.963,0.384L849.328,116.117z M433.339,115.059l-14.653-37.22l0.966-0.379l14.583,37.247L433.339,115.059z
		 M842.1,113.285l-0.912-0.35l14.301-37.356l0.963,0.369L842.1,113.285z M440.542,112.277l-14.135-37.419l0.971-0.366l14.064,37.446
		L440.542,112.277z M834.854,110.56l-0.918-0.337L847.7,72.666l0.969,0.355L834.854,110.56z M447.8,109.59L434.153,71.99
		l1.002-0.362l13.524,37.645L447.8,109.59z M827.57,107.934l-0.923-0.324l13.225-37.751l0.974,0.342L827.57,107.934z
		 M455.078,107.009l-13.123-37.786l1.006-0.348l13,37.828L455.078,107.009z M820.202,105.396l-0.899-0.303l12.719-37.924
		l1.005,0.338L820.202,105.396z M462.39,104.529l-12.597-37.965l1.011-0.333l12.474,38.005L462.39,104.529z M812.826,102.967
		l-0.887-0.285l12.176-38.102l1.027,0.33L812.826,102.967z M469.735,102.149l-12.067-38.136l1.007-0.317l11.961,38.17
		L469.735,102.149z M805.433,100.646l-0.908-0.278l11.665-38.261l1.015,0.311L805.433,100.646z M477.121,99.87l-11.553-38.295
		l1.019-0.306l11.43,38.332L477.121,99.87z M798.031,98.435l-0.907-0.264l11.128-38.421l1.016,0.295L798.031,98.435z
		 M484.529,97.695l-11.02-38.452l1.031-0.293l10.881,38.491L484.529,97.695z M790.623,96.332l-0.937-0.258l10.609-38.567
		l0.991,0.273L790.623,96.332z M491.967,95.623l-10.485-38.602l1.02-0.275l10.376,38.631L491.967,95.623z M783.173,94.328
		l-0.955-0.249l10.088-38.707l0.98,0.256L783.173,94.328z M499.44,93.65l-9.963-38.739l1.031-0.263l9.839,38.771L499.44,93.65z
		 M775.682,92.423l-0.943-0.232l9.535-38.847l1,0.246L775.682,92.423z M506.913,91.789l-9.384-38.884l1.006-0.242l9.315,38.9
		L506.913,91.789z M768.154,90.619l-0.906-0.21l8.955-38.984l1.044,0.241L768.154,90.619z M514.431,90.024l-8.845-39.01l1.003-0.227
		l8.789,39.022L514.431,90.024z M760.653,88.93l-0.95-0.206l8.43-39.102l1.005,0.218L760.653,88.93z M521.979,88.363l-8.317-39.126
		l1.035-0.219l8.205,39.149L521.979,88.363z M753.078,87.335l-0.94-0.191l7.9-39.212l1.021,0.207L753.078,87.335z M529.55,86.807
		l-7.788-39.234l1.009-0.2l7.732,39.246L529.55,86.807z M745.505,85.847l-0.955-0.179l7.371-39.315l1.012,0.19L745.505,85.847z
		 M537.146,85.353l-7.269-39.334l1.051-0.192l7.135,39.358L537.146,85.353z M737.899,84.463l-0.967-0.168l6.861-39.407l1.004,0.175
		L737.899,84.463z M544.729,84.01l-6.681-39.438l1.02-0.172l6.614,39.449L544.729,84.01z M730.266,83.182l-0.93-0.149l6.271-39.505
		l1.044,0.167L730.266,83.182z M552.362,82.765l-6.157-39.523l1.021-0.158l6.091,39.534L552.362,82.765z M722.647,82.01
		l-0.952-0.139l5.738-39.586l1.026,0.15L722.647,82.01z M560.007,81.626l-5.624-39.603l1.019-0.144l5.566,39.61L560.007,81.626z
		 M715,80.941l-0.97-0.128l5.221-39.658l1.013,0.134L715,80.941z M567.672,80.592l-5.099-39.674l1.054-0.134l4.976,39.689
		L567.672,80.592z M707.324,79.975l-0.936-0.11l4.629-39.731l1.051,0.124L707.324,79.975z M575.32,79.666l-4.514-39.744l1.03-0.117
		l4.442,39.753L575.32,79.666z M699.642,79.114l-0.938-0.098l4.096-39.79l1.054,0.11L699.642,79.114z M583.01,78.842l-3.986-39.801
		l1.056-0.105l3.864,39.813L583.01,78.842z M691.941,78.358l-0.938-0.085l3.574-39.84l1.054,0.096L691.941,78.358z M590.71,78.123
		l-3.458-39.851l1.025-0.088l3.399,39.855L590.71,78.123z M684.266,77.711l-0.973-0.075l3.05-39.884l1.022,0.079L684.266,77.711z
		 M598.419,77.508l-2.929-39.893l1.053-0.076l2.816,39.9L598.419,77.508z M676.545,77.165l-0.937-0.06l2.459-39.924l1.06,0.066
		L676.545,77.165z M606.11,77.001l-2.346-39.932l1.029-0.06l2.283,39.935L606.11,77.001z M668.824,76.724l-0.94-0.047l1.934-39.953
		l1.058,0.053L668.824,76.724z M613.834,76.596l-1.816-39.959l1.056-0.047l1.702,39.964L613.834,76.596z M661.129,76.389
		l-0.973-0.035l1.406-39.976l0.959,0.035L661.129,76.389z M621.541,76.296l-1.294-39.979l1.026-0.032l1.234,39.981L621.541,76.296z
		 M653.396,76.156l-0.972-0.022l0.879-39.99l1.028,0.023L653.396,76.156z M629.254,76.101l-0.764-39.993l1.056-0.019l0.646,39.995
		L629.254,76.101z M645.66,76.028l-0.971-0.009l0.352-39.998l1.029,0.009L645.66,76.028z M636.983,76.007l-0.234-39.999l1.058-0.005
		l0.117,40L636.983,76.007z" style="stroke: #826a3e"/>
</g>
<g>
</g>
<g>
</g>
<g>
</g>
<g>
</g>
<g>
</g>
<g>
</g>
</svg>
