<?xml version="1.0" encoding="utf-8"?>
<!-- Generator: Adobe Illustrator 16.0.3, SVG Export Plug-In . SVG Version: 6.00 Build 0)  -->
<!DOCTYPE svg PUBLIC "-//W3C//DTD SVG 1.1//EN" "http://www.w3.org/Graphics/SVG/1.1/DTD/svg11.dtd">
<svg version="1.1" xmlns="http://www.w3.org/2000/svg" xmlns:xlink="http://www.w3.org/1999/xlink" x="0px" y="0px" width="64px"
	 height="64px" viewBox="0 0 64 64" enable-background="new 0 0 64 64" xml:space="preserve">
<g id="Ebene_1" display="none">
	<path display="inline" d="M63.31,25.04c-0.149-0.68-0.319-1.34-0.51-2C58.92,9.69,46.6-0.07,32-0.07C17.41-0.07,5.1,9.67,1.21,23
		c-0.19,0.66-0.36,1.32-0.51,2c-0.51,2.25-0.77,4.59-0.77,7s0.26,4.75,0.77,7c0.15,0.68,0.32,1.34,0.51,2
		C5.1,54.33,17.41,64.07,32,64.07S58.9,54.33,62.79,41c0.19-0.66,0.36-1.32,0.51-2c0.51-2.25,0.771-4.59,0.771-7
		C64.07,29.61,63.81,27.28,63.31,25.04z M32,1.93c13.46,0,24.88,8.89,28.71,21.1l-4.31-0.02C52.73,13.09,43.18,6,32,6
		C20.82,6,11.27,13.08,7.61,23H3.3C7.14,10.8,18.55,1.93,32,1.93z M32,62.07C18.55,62.07,7.14,53.2,3.3,41h4.31
		C11.27,50.92,20.82,58,32,58c11.18,0,20.73-7.08,24.39-17H60.7C56.86,53.2,45.45,62.07,32,62.07z M61.24,39h-6.28
		c-0.21,0.68-0.44,1.35-0.72,2C50.68,49.78,42.05,56,32,56S13.32,49.78,9.76,41c-0.28-0.65-0.51-1.32-0.72-2H2.76
		c-0.55-2.25-0.83-4.59-0.83-7s0.28-4.75,0.83-7h6.28c0.21-0.68,0.44-1.35,0.72-2C13.32,14.22,21.95,8,32,8
		c10.06,0,18.69,6.22,22.25,15.01c0.27,0.65,0.51,1.32,0.71,2l2.08,0.01l4.21,0.01c0.54,2.24,0.82,4.57,0.82,6.97
		C62.07,34.41,61.79,36.75,61.24,39z"/>
	<polygon display="inline" fill="none" stroke="#000000" stroke-width="2" stroke-miterlimit="10" points="32,12 49.32,22 49.32,42 
		32,52 14.68,42 14.68,22 	"/>
	<polyline display="inline" fill="none" stroke="#000000" stroke-width="2" stroke-miterlimit="10" points="49.32,22 32,52 
		14.68,22 	"/>
	<polyline display="inline" fill="none" stroke="#000000" stroke-width="2" stroke-miterlimit="10" points="14.68,42 32,12 
		49.32,42 	"/>
</g>
<g id="Ebene_2">
	<g display="none">
		<path display="inline" d="M32,6c13.233,0,24,10.766,24,24c0,13.233-10.767,24-24,24C18.766,54,8,43.233,8,30
			C8,16.766,18.766,6,32,6 M32,2C16.536,2,4,14.536,4,30c0,15.464,12.536,28,28,28c15.464,0,28-12.536,28-28
			C60,14.536,47.464,2,32,2L32,2z"/>
	</g>
	<g display="none">
		<path display="inline" d="M36,2v56h-8V2H36 M40-2H24v64h16V-2L40-2z"/>
	</g>
	<path fill="#836B3E" d="M42,3.85c-1.29-0.5-2.62-0.9-4-1.2C36.07,2.22,34.06,2,32,2c-2.06,0-4.07,0.22-6,0.65
		c-1.38,0.3-2.71,0.7-4,1.2C11.48,7.87,4,18.06,4,30c0,11.94,7.48,22.13,18,26.15V64h20v-7.85C52.52,52.13,60,41.94,60,30
		C60,18.06,52.52,7.87,42,3.85z M42,51.81c-1.28,0.591-2.61,1.07-4,1.431V60H26v-6.76c-1.39-0.36-2.72-0.84-4-1.431
		C13.75,48.02,8,39.67,8,30s5.75-18.02,14-21.81c1.28-0.59,2.61-1.07,4-1.43C27.92,6.26,29.93,6,32,6c2.07,0,4.08,0.26,6,0.76
		c1.39,0.36,2.72,0.84,4,1.43C50.25,11.98,56,20.33,56,30S50.25,48.02,42,51.81z"/>
	<path display="none" d="M32,10c-11.03,0-20,8.97-20,20c0,4.5,1.49,8.66,4,12v15.7c0.65,0.38,1.32,0.74,2,1.069
		c0.16,0.08,0.32,0.16,0.48,0.23c1.78,0.83,3.64,1.5,5.57,2c0.582,0.148,1.17,0.276,1.763,0.393
		c-0.048-0.57-0.001-1.143,0.179-1.659c0.038-0.107,0.076-0.215,0.114-0.322c-0.185-0.035-0.374-0.069-0.556-0.121
		c-0.24-0.04-0.48-0.1-0.72-0.16c-0.17-0.04-0.33-0.09-0.5-0.13c-2.22-0.58-4.34-1.42-6.33-2.47V41.29c-0.77-0.95-1.44-1.97-2-3.07
		c-1.28-2.46-2-5.26-2-8.22c0-9.93,8.07-18,18-18c9.92,0,18,8.07,18,18c0,2.96-0.72,5.76-2,8.22c-0.56,1.101-1.23,2.12-2,3.07v15.24
		c-1.99,1.05-4.11,1.89-6.33,2.47c-0.17,0.04-0.33,0.09-0.5,0.13c-0.24,0.061-0.479,0.12-0.72,0.16
		c-0.18,0.051-0.365,0.085-0.547,0.119c0.166,0.666,0.188,1.355,0.077,2.027c0.664-0.126,1.32-0.271,1.97-0.437
		c1.93-0.5,3.79-1.17,5.569-2c0.16-0.07,0.32-0.15,0.48-0.23c0.68-0.329,1.35-0.689,2-1.069V42c2.51-3.34,4-7.5,4-12
		C52,18.97,43.03,10,32,10z"/>
	<circle fill="none" stroke="#836B3E" stroke-width="2" stroke-miterlimit="10" cx="32" cy="30" r="19"/>
	<polyline fill="none" stroke="#836B3E" stroke-width="2" stroke-miterlimit="10" points="17,42 17,59 23,59 	"/>
	<polyline fill="none" stroke="#836B3E" stroke-width="2" stroke-miterlimit="10" points="47,42 47,59 41,59 	"/>
	<path display="none" d="M52,30c0,4.5-1.49,8.66-4,12v18h-7v-2h5V41.29c0.77-0.95,1.44-1.97,2-3.07c1.28-2.46,2-5.26,2-8.22
		c0-9.93-8.08-18-18-18c-9.93,0-18,8.07-18,18c0,2.96,0.72,5.76,2,8.22c0.56,1.101,1.23,2.12,2,3.07V58h5v2h-7V42
		c-2.51-3.34-4-7.5-4-12c0-11.03,8.97-20,20-20C43.03,10,52,18.97,52,30z"/>
	<g display="none">
		<path display="inline" d="M32,24c3.309,0,6,2.691,6,6s-2.691,6-6,6s-6-2.691-6-6S28.691,24,32,24 M32,22c-4.418,0-8,3.582-8,8
			s3.582,8,8,8s8-3.582,8-8S36.418,22,32,22L32,22z"/>
	</g>
	<g>
	</g>
	<g>
	</g>
	<g>
	</g>
	<g>
	</g>
	<g>
	</g>
	<g>
	</g>
</g>
</svg>
