<?xml version="1.0" encoding="utf-8"?>
<!-- Generator: Adobe Illustrator 16.0.3, SVG Export Plug-In . SVG Version: 6.00 Build 0)  -->
<!DOCTYPE svg PUBLIC "-//W3C//DTD SVG 1.1//EN" "http://www.w3.org/Graphics/SVG/1.1/DTD/svg11.dtd">
<svg version="1.1" id="Ebene_1" xmlns="http://www.w3.org/2000/svg" xmlns:xlink="http://www.w3.org/1999/xlink" x="0px" y="0px"
	 width="64px" height="64px" viewBox="0 0 64 64" enable-background="new 0 0 64 64" xml:space="preserve">
<path display="none" fill="#1D1D1B" d="M38.5,14v10.91l-13-11.14V8h-1v42h1V39.09l13,11.141V56h1V14H38.5z M25.5,15.08L38.23,26
	L25.5,36.91V15.08z M31.5,42.91L25.77,38l5.73-4.91V42.91z M38.5,48.91l-6-5.141V32.23l6-5.14V48.91z"/>
<path fill="#1D1D1B" d="M38.5,14v10.91l-13-11.14V8h-1v42h1V39.09l13,11.141V56h1V14H38.5z M25.5,15.08L38.23,26L25.5,36.91V15.08z
	 M31.5,42.91L25.77,38l5.73-4.91V42.91z M38.5,48.91l-6-5.141V32.23l6-5.14V48.91z"/>
<polygon display="none" fill="#1D1D1B" points="25.5,37.77 25.5,38.23 25.23,38 "/>
<polygon display="none" fill="#1D1D1B" points="40.77,26 40.5,26.23 40.5,25.77 "/>
<path display="none" fill="#1D1D1B" d="M37.5,13v12.79l-11-10.99V9h-1v44h1V40.21l11,10.99V57h1V13H37.5z M26.5,16.2L37.29,27
	L26.5,37.79V16.2z M31.5,43.79L26.71,39l4.79-4.79V43.79z M37.5,49.8l-5-5.01V33.21l5-5V49.8z"/>
<g>
</g>
<g>
</g>
<g>
</g>
<g>
</g>
<g>
</g>
<g>
</g>
</svg>
